<mxfile host="app.diagrams.net" agent="Mozilla/5.0 (Windows NT 10.0; Win64; x64) AppleWebKit/537.36 (KHTML, like Gecko) Chrome/127.0.0.0 Safari/537.36" version="24.7.7">
  <diagram id="DN8quWtbgA-KHxeKkc_G" name="페이지-4">
    <mxGraphModel dx="1834" dy="1180" grid="1" gridSize="10" guides="1" tooltips="1" connect="1" arrows="1" fold="1" page="0" pageScale="1" pageWidth="827" pageHeight="1169" math="0" shadow="0">
      <root>
        <mxCell id="0" />
        <mxCell id="1" parent="0" />
        <mxCell id="fLlTL7555wPJ567KnK8Y-1" value="회원" style="shape=umlActor;verticalLabelPosition=bottom;verticalAlign=top;html=1;" parent="1" vertex="1">
          <mxGeometry x="-247" y="-3" width="30" height="60" as="geometry" />
        </mxCell>
        <mxCell id="fLlTL7555wPJ567KnK8Y-2" value="비회원" style="shape=umlActor;verticalLabelPosition=bottom;verticalAlign=top;html=1;" parent="1" vertex="1">
          <mxGeometry x="-264" y="332" width="47" height="78" as="geometry" />
        </mxCell>
        <mxCell id="fLlTL7555wPJ567KnK8Y-3" value="판매자" style="shape=umlActor;verticalLabelPosition=bottom;verticalAlign=top;html=1;" parent="1" vertex="1">
          <mxGeometry x="659" y="-6" width="30" height="60" as="geometry" />
        </mxCell>
        <mxCell id="fLlTL7555wPJ567KnK8Y-6" value="frame" style="shape=umlFrame;whiteSpace=wrap;html=1;pointerEvents=0;" parent="1" vertex="1">
          <mxGeometry x="-181" y="-240" width="916" height="738" as="geometry" />
        </mxCell>
        <mxCell id="mVMnlHyqA3mb3d4pD_yt-1" value="상품 조회" style="ellipse;whiteSpace=wrap;html=1;" parent="1" vertex="1">
          <mxGeometry x="30" y="-18" width="88" height="52" as="geometry" />
        </mxCell>
        <mxCell id="mVMnlHyqA3mb3d4pD_yt-3" value="상품 검색" style="ellipse;whiteSpace=wrap;html=1;" parent="1" vertex="1">
          <mxGeometry x="30" y="34" width="88" height="52" as="geometry" />
        </mxCell>
        <mxCell id="mVMnlHyqA3mb3d4pD_yt-4" value="장바구니" style="ellipse;whiteSpace=wrap;html=1;" parent="1" vertex="1">
          <mxGeometry x="30" y="90" width="88" height="52" as="geometry" />
        </mxCell>
        <mxCell id="mVMnlHyqA3mb3d4pD_yt-5" value="즐겨찾기" style="ellipse;whiteSpace=wrap;html=1;" parent="1" vertex="1">
          <mxGeometry x="30" y="142" width="88" height="52" as="geometry" />
        </mxCell>
        <mxCell id="mVMnlHyqA3mb3d4pD_yt-6" value="Use" style="endArrow=classic;endSize=12;html=1;rounded=0;fontSize=12;curved=1;entryX=0;entryY=0.5;entryDx=0;entryDy=0;exitX=1;exitY=0.3333333333333333;exitDx=0;exitDy=0;exitPerimeter=0;endFill=1;" parent="1" source="fLlTL7555wPJ567KnK8Y-1" target="mVMnlHyqA3mb3d4pD_yt-1" edge="1">
          <mxGeometry width="160" relative="1" as="geometry">
            <mxPoint x="-232" y="23.5" as="sourcePoint" />
            <mxPoint x="-72" y="23.5" as="targetPoint" />
          </mxGeometry>
        </mxCell>
        <mxCell id="mVMnlHyqA3mb3d4pD_yt-7" value="Use" style="endArrow=classic;endSize=12;html=1;rounded=0;fontSize=12;curved=1;entryX=0;entryY=0.5;entryDx=0;entryDy=0;exitX=1;exitY=0.3333333333333333;exitDx=0;exitDy=0;exitPerimeter=0;endFill=1;" parent="1" source="fLlTL7555wPJ567KnK8Y-1" target="mVMnlHyqA3mb3d4pD_yt-3" edge="1">
          <mxGeometry width="160" relative="1" as="geometry">
            <mxPoint x="-207" y="27" as="sourcePoint" />
            <mxPoint x="-93" y="18" as="targetPoint" />
          </mxGeometry>
        </mxCell>
        <mxCell id="mVMnlHyqA3mb3d4pD_yt-10" value="Use" style="endArrow=classic;endSize=12;html=1;rounded=0;fontSize=12;curved=1;entryX=0;entryY=0.5;entryDx=0;entryDy=0;endFill=1;exitX=1;exitY=0.3333333333333333;exitDx=0;exitDy=0;exitPerimeter=0;" parent="1" source="fLlTL7555wPJ567KnK8Y-1" target="mVMnlHyqA3mb3d4pD_yt-4" edge="1">
          <mxGeometry width="160" relative="1" as="geometry">
            <mxPoint x="-215" y="21" as="sourcePoint" />
            <mxPoint x="-99" y="90" as="targetPoint" />
          </mxGeometry>
        </mxCell>
        <mxCell id="mVMnlHyqA3mb3d4pD_yt-11" value="Use" style="endArrow=classic;endSize=12;html=1;rounded=0;fontSize=12;curved=1;entryX=0;entryY=0.5;entryDx=0;entryDy=0;exitX=1;exitY=0.3333333333333333;exitDx=0;exitDy=0;exitPerimeter=0;endFill=1;" parent="1" source="fLlTL7555wPJ567KnK8Y-1" target="mVMnlHyqA3mb3d4pD_yt-5" edge="1">
          <mxGeometry width="160" relative="1" as="geometry">
            <mxPoint x="-197" y="37" as="sourcePoint" />
            <mxPoint x="-83" y="80" as="targetPoint" />
          </mxGeometry>
        </mxCell>
        <mxCell id="mVMnlHyqA3mb3d4pD_yt-12" value="전체&lt;div&gt;조회&lt;/div&gt;" style="ellipse;whiteSpace=wrap;html=1;" parent="1" vertex="1">
          <mxGeometry x="-10" y="-160" width="52" height="45" as="geometry" />
        </mxCell>
        <mxCell id="RLk2pSNQB4ATW7fSWy9O-1" value="&lt;div&gt;브랜드&lt;/div&gt;&lt;div&gt;조회&lt;/div&gt;" style="ellipse;whiteSpace=wrap;html=1;" parent="1" vertex="1">
          <mxGeometry x="42" y="-160" width="52" height="45" as="geometry" />
        </mxCell>
        <mxCell id="RLk2pSNQB4ATW7fSWy9O-2" value="카테고리&lt;div&gt;조회&lt;/div&gt;" style="ellipse;whiteSpace=wrap;html=1;" parent="1" vertex="1">
          <mxGeometry x="94" y="-160" width="52" height="45" as="geometry" />
        </mxCell>
        <mxCell id="RLk2pSNQB4ATW7fSWy9O-3" value="Extends" style="endArrow=open;endSize=16;endFill=0;html=1;rounded=0;fontSize=12;curved=1;exitX=0.5;exitY=1;exitDx=0;exitDy=0;dashed=1;entryX=0.5;entryY=0;entryDx=0;entryDy=0;" parent="1" source="RLk2pSNQB4ATW7fSWy9O-2" target="mVMnlHyqA3mb3d4pD_yt-1" edge="1">
          <mxGeometry width="160" relative="1" as="geometry">
            <mxPoint x="150" y="70" as="sourcePoint" />
            <mxPoint x="-60" y="-20" as="targetPoint" />
          </mxGeometry>
        </mxCell>
        <mxCell id="RLk2pSNQB4ATW7fSWy9O-4" value="Extends" style="endArrow=open;endSize=16;endFill=0;html=1;rounded=0;fontSize=12;curved=1;exitX=0.5;exitY=1;exitDx=0;exitDy=0;entryX=0.5;entryY=0;entryDx=0;entryDy=0;dashed=1;" parent="1" source="RLk2pSNQB4ATW7fSWy9O-1" target="mVMnlHyqA3mb3d4pD_yt-1" edge="1">
          <mxGeometry width="160" relative="1" as="geometry">
            <mxPoint y="-78" as="sourcePoint" />
            <mxPoint x="-36" y="-7" as="targetPoint" />
          </mxGeometry>
        </mxCell>
        <mxCell id="RLk2pSNQB4ATW7fSWy9O-5" value="Extends" style="endArrow=open;endSize=16;endFill=0;html=1;rounded=0;fontSize=12;curved=1;exitX=0.5;exitY=1;exitDx=0;exitDy=0;entryX=0.5;entryY=0;entryDx=0;entryDy=0;dashed=1;" parent="1" source="mVMnlHyqA3mb3d4pD_yt-12" target="mVMnlHyqA3mb3d4pD_yt-1" edge="1">
          <mxGeometry width="160" relative="1" as="geometry">
            <mxPoint x="10" y="-68" as="sourcePoint" />
            <mxPoint x="-26" y="3" as="targetPoint" />
          </mxGeometry>
        </mxCell>
        <mxCell id="RLk2pSNQB4ATW7fSWy9O-7" value="상품 결제" style="ellipse;whiteSpace=wrap;html=1;" parent="1" vertex="1">
          <mxGeometry x="250" y="-18" width="88" height="52" as="geometry" />
        </mxCell>
        <mxCell id="RLk2pSNQB4ATW7fSWy9O-9" value="상품 환불" style="ellipse;whiteSpace=wrap;html=1;" parent="1" vertex="1">
          <mxGeometry x="250" y="34" width="88" height="52" as="geometry" />
        </mxCell>
        <mxCell id="RLk2pSNQB4ATW7fSWy9O-10" value="카드결제" style="ellipse;whiteSpace=wrap;html=1;" parent="1" vertex="1">
          <mxGeometry x="242" y="-100" width="52" height="45" as="geometry" />
        </mxCell>
        <mxCell id="RLk2pSNQB4ATW7fSWy9O-11" value="&lt;div&gt;휴대폰&lt;/div&gt;&lt;div&gt;결제&lt;/div&gt;" style="ellipse;whiteSpace=wrap;html=1;" parent="1" vertex="1">
          <mxGeometry x="294" y="-100" width="52" height="45" as="geometry" />
        </mxCell>
        <mxCell id="RLk2pSNQB4ATW7fSWy9O-12" value="Extends" style="endArrow=open;endSize=16;endFill=0;html=1;rounded=0;fontSize=12;curved=1;exitX=0.5;exitY=1;exitDx=0;exitDy=0;entryX=0.5;entryY=0;entryDx=0;entryDy=0;dashed=1;" parent="1" source="RLk2pSNQB4ATW7fSWy9O-10" edge="1">
          <mxGeometry width="160" relative="1" as="geometry">
            <mxPoint x="240" y="-88" as="sourcePoint" />
            <mxPoint x="295" y="-18" as="targetPoint" />
          </mxGeometry>
        </mxCell>
        <mxCell id="RLk2pSNQB4ATW7fSWy9O-13" value="Extends" style="endArrow=open;endSize=16;endFill=0;html=1;rounded=0;fontSize=12;curved=1;exitX=0.5;exitY=1;exitDx=0;exitDy=0;entryX=0.5;entryY=0;entryDx=0;entryDy=0;dashed=1;" parent="1" source="RLk2pSNQB4ATW7fSWy9O-11" target="RLk2pSNQB4ATW7fSWy9O-7" edge="1">
          <mxGeometry width="160" relative="1" as="geometry">
            <mxPoint x="-94" y="-68" as="sourcePoint" />
            <mxPoint x="-39" y="2" as="targetPoint" />
          </mxGeometry>
        </mxCell>
        <mxCell id="L9M-ictUY9GYTMz1ji3T-1" value="Use" style="endArrow=classic;endSize=12;html=1;rounded=0;fontSize=12;curved=1;exitX=1;exitY=0.5;exitDx=0;exitDy=0;endFill=1;entryX=0.5;entryY=0.5;entryDx=0;entryDy=0;entryPerimeter=0;" parent="1" source="RLk2pSNQB4ATW7fSWy9O-7" target="L9M-ictUY9GYTMz1ji3T-2" edge="1">
          <mxGeometry width="160" relative="1" as="geometry">
            <mxPoint x="338" y="53.5" as="sourcePoint" />
            <mxPoint x="452" y="204.5" as="targetPoint" />
          </mxGeometry>
        </mxCell>
        <mxCell id="L9M-ictUY9GYTMz1ji3T-2" value="결제 대행 서비스" style="shape=umlActor;verticalLabelPosition=bottom;verticalAlign=top;html=1;" parent="1" vertex="1">
          <mxGeometry x="420" y="-220" width="30" height="60" as="geometry" />
        </mxCell>
        <mxCell id="L9M-ictUY9GYTMz1ji3T-3" value="Use" style="endArrow=classic;endSize=12;html=1;rounded=0;fontSize=12;curved=1;exitX=1;exitY=0.5;exitDx=0;exitDy=0;endFill=1;entryX=0.5;entryY=0.5;entryDx=0;entryDy=0;entryPerimeter=0;" parent="1" source="RLk2pSNQB4ATW7fSWy9O-9" target="L9M-ictUY9GYTMz1ji3T-2" edge="1">
          <mxGeometry width="160" relative="1" as="geometry">
            <mxPoint x="348" y="18" as="sourcePoint" />
            <mxPoint x="445" y="-180" as="targetPoint" />
          </mxGeometry>
        </mxCell>
        <mxCell id="L9M-ictUY9GYTMz1ji3T-4" value="Use" style="endArrow=classic;endSize=12;html=1;rounded=0;fontSize=12;curved=1;entryX=0;entryY=0.5;entryDx=0;entryDy=0;exitX=1;exitY=0.3333333333333333;exitDx=0;exitDy=0;exitPerimeter=0;endFill=1;" parent="1" source="fLlTL7555wPJ567KnK8Y-1" target="RLk2pSNQB4ATW7fSWy9O-7" edge="1">
          <mxGeometry width="160" relative="1" as="geometry">
            <mxPoint x="-207" y="27" as="sourcePoint" />
            <mxPoint x="-93" y="178" as="targetPoint" />
          </mxGeometry>
        </mxCell>
        <mxCell id="L9M-ictUY9GYTMz1ji3T-6" value="Use" style="endArrow=classic;endSize=12;html=1;rounded=0;fontSize=12;curved=1;entryX=0;entryY=0.5;entryDx=0;entryDy=0;exitX=1;exitY=0.3333333333333333;exitDx=0;exitDy=0;exitPerimeter=0;endFill=1;" parent="1" source="fLlTL7555wPJ567KnK8Y-1" edge="1">
          <mxGeometry width="160" relative="1" as="geometry">
            <mxPoint x="-217" y="69" as="sourcePoint" />
            <mxPoint x="250" y="60" as="targetPoint" />
          </mxGeometry>
        </mxCell>
        <mxCell id="_qejKRSrahK1XEYpAzub-1" value="로그인" style="ellipse;whiteSpace=wrap;html=1;" parent="1" vertex="1">
          <mxGeometry x="30" y="240" width="88" height="52" as="geometry" />
        </mxCell>
        <mxCell id="_qejKRSrahK1XEYpAzub-2" value="회원가입" style="ellipse;whiteSpace=wrap;html=1;" parent="1" vertex="1">
          <mxGeometry x="30" y="292" width="88" height="52" as="geometry" />
        </mxCell>
        <mxCell id="_qejKRSrahK1XEYpAzub-3" value="회원탈퇴" style="ellipse;whiteSpace=wrap;html=1;" parent="1" vertex="1">
          <mxGeometry x="30" y="344" width="88" height="52" as="geometry" />
        </mxCell>
        <mxCell id="_qejKRSrahK1XEYpAzub-4" value="Use" style="endArrow=classic;endSize=12;html=1;rounded=0;fontSize=12;curved=1;entryX=0;entryY=0.5;entryDx=0;entryDy=0;exitX=1;exitY=0.3333333333333333;exitDx=0;exitDy=0;exitPerimeter=0;endFill=1;" parent="1" source="fLlTL7555wPJ567KnK8Y-2" target="_qejKRSrahK1XEYpAzub-2" edge="1">
          <mxGeometry width="160" relative="1" as="geometry">
            <mxPoint x="-181" y="240" as="sourcePoint" />
            <mxPoint x="-67" y="391" as="targetPoint" />
          </mxGeometry>
        </mxCell>
        <mxCell id="_qejKRSrahK1XEYpAzub-5" value="Use" style="endArrow=classic;endSize=12;html=1;rounded=0;fontSize=12;curved=1;entryX=0;entryY=0.5;entryDx=0;entryDy=0;exitX=1;exitY=0.3333333333333333;exitDx=0;exitDy=0;exitPerimeter=0;endFill=1;" parent="1" source="fLlTL7555wPJ567KnK8Y-2" target="_qejKRSrahK1XEYpAzub-1" edge="1">
          <mxGeometry width="160" relative="1" as="geometry">
            <mxPoint x="-207" y="368" as="sourcePoint" />
            <mxPoint x="40" y="328" as="targetPoint" />
          </mxGeometry>
        </mxCell>
        <mxCell id="_qejKRSrahK1XEYpAzub-6" value="Use" style="endArrow=classic;endSize=12;html=1;rounded=0;fontSize=12;curved=1;entryX=0;entryY=0.5;entryDx=0;entryDy=0;exitX=1;exitY=0.3333333333333333;exitDx=0;exitDy=0;exitPerimeter=0;endFill=1;" parent="1" source="fLlTL7555wPJ567KnK8Y-1" target="_qejKRSrahK1XEYpAzub-3" edge="1">
          <mxGeometry width="160" relative="1" as="geometry">
            <mxPoint x="-197" y="378" as="sourcePoint" />
            <mxPoint x="50" y="338" as="targetPoint" />
          </mxGeometry>
        </mxCell>
        <mxCell id="_qejKRSrahK1XEYpAzub-7" value="Use" style="endArrow=classic;endSize=12;html=1;rounded=0;fontSize=12;curved=1;entryX=1;entryY=0.5;entryDx=0;entryDy=0;exitX=0;exitY=0.3333333333333333;exitDx=0;exitDy=0;exitPerimeter=0;endFill=1;" parent="1" source="fLlTL7555wPJ567KnK8Y-3" target="_qejKRSrahK1XEYpAzub-3" edge="1">
          <mxGeometry width="160" relative="1" as="geometry">
            <mxPoint x="-187" y="388" as="sourcePoint" />
            <mxPoint x="60" y="348" as="targetPoint" />
          </mxGeometry>
        </mxCell>
        <mxCell id="_qejKRSrahK1XEYpAzub-8" value="Use" style="endArrow=classic;endSize=12;html=1;rounded=0;fontSize=12;curved=1;exitX=1;exitY=0.3333333333333333;exitDx=0;exitDy=0;exitPerimeter=0;endFill=1;entryX=0;entryY=0.5;entryDx=0;entryDy=0;" parent="1" source="fLlTL7555wPJ567KnK8Y-2" target="mVMnlHyqA3mb3d4pD_yt-1" edge="1">
          <mxGeometry width="160" relative="1" as="geometry">
            <mxPoint x="-207" y="368" as="sourcePoint" />
            <mxPoint x="-110" y="10" as="targetPoint" />
          </mxGeometry>
        </mxCell>
        <mxCell id="_qejKRSrahK1XEYpAzub-9" value="Use" style="endArrow=classic;endSize=12;html=1;rounded=0;fontSize=12;curved=1;exitX=1;exitY=0.3333333333333333;exitDx=0;exitDy=0;exitPerimeter=0;endFill=1;entryX=0;entryY=0.5;entryDx=0;entryDy=0;" parent="1" source="fLlTL7555wPJ567KnK8Y-2" target="mVMnlHyqA3mb3d4pD_yt-3" edge="1">
          <mxGeometry width="160" relative="1" as="geometry">
            <mxPoint x="-197" y="378" as="sourcePoint" />
            <mxPoint x="-110" y="60" as="targetPoint" />
          </mxGeometry>
        </mxCell>
        <mxCell id="_qejKRSrahK1XEYpAzub-10" value="Use" style="endArrow=classic;endSize=12;html=1;rounded=0;fontSize=12;curved=1;entryX=0;entryY=0.5;entryDx=0;entryDy=0;exitX=1;exitY=0.3333333333333333;exitDx=0;exitDy=0;exitPerimeter=0;endFill=1;" parent="1" source="fLlTL7555wPJ567KnK8Y-2" target="mVMnlHyqA3mb3d4pD_yt-4" edge="1">
          <mxGeometry width="160" relative="1" as="geometry">
            <mxPoint x="-187" y="388" as="sourcePoint" />
            <mxPoint x="60" y="296" as="targetPoint" />
          </mxGeometry>
        </mxCell>
        <mxCell id="_qejKRSrahK1XEYpAzub-11" value="회원정보확인" style="ellipse;whiteSpace=wrap;html=1;" parent="1" vertex="1">
          <mxGeometry x="480" y="200" width="88" height="52" as="geometry" />
        </mxCell>
        <mxCell id="_qejKRSrahK1XEYpAzub-12" value="회원정보수정" style="ellipse;whiteSpace=wrap;html=1;" parent="1" vertex="1">
          <mxGeometry x="480" y="280" width="88" height="52" as="geometry" />
        </mxCell>
        <mxCell id="_qejKRSrahK1XEYpAzub-14" value="Use" style="endArrow=classic;endSize=12;html=1;rounded=0;fontSize=12;curved=1;entryX=0;entryY=0.5;entryDx=0;entryDy=0;exitX=1;exitY=0.3333333333333333;exitDx=0;exitDy=0;exitPerimeter=0;endFill=1;" parent="1" source="fLlTL7555wPJ567KnK8Y-1" target="_qejKRSrahK1XEYpAzub-11" edge="1">
          <mxGeometry width="160" relative="1" as="geometry">
            <mxPoint x="-207" y="27" as="sourcePoint" />
            <mxPoint x="40" y="380" as="targetPoint" />
          </mxGeometry>
        </mxCell>
        <mxCell id="_qejKRSrahK1XEYpAzub-15" value="Use" style="endArrow=classic;endSize=12;html=1;rounded=0;fontSize=12;curved=1;exitX=1;exitY=0.3333333333333333;exitDx=0;exitDy=0;exitPerimeter=0;endFill=1;" parent="1" source="fLlTL7555wPJ567KnK8Y-1" target="_qejKRSrahK1XEYpAzub-12" edge="1">
          <mxGeometry width="160" relative="1" as="geometry">
            <mxPoint x="-207" y="27" as="sourcePoint" />
            <mxPoint x="490" y="236" as="targetPoint" />
          </mxGeometry>
        </mxCell>
        <mxCell id="_qejKRSrahK1XEYpAzub-16" value="Use" style="endArrow=classic;endSize=12;html=1;rounded=0;fontSize=12;curved=1;entryX=1;entryY=0;entryDx=0;entryDy=0;endFill=1;exitX=0;exitY=0.3333333333333333;exitDx=0;exitDy=0;exitPerimeter=0;" parent="1" source="fLlTL7555wPJ567KnK8Y-3" target="_qejKRSrahK1XEYpAzub-11" edge="1">
          <mxGeometry width="160" relative="1" as="geometry">
            <mxPoint x="450" y="272" as="sourcePoint" />
            <mxPoint x="697" y="180" as="targetPoint" />
          </mxGeometry>
        </mxCell>
        <mxCell id="_qejKRSrahK1XEYpAzub-17" value="Use" style="endArrow=classic;endSize=12;html=1;rounded=0;fontSize=12;curved=1;entryX=1;entryY=0.5;entryDx=0;entryDy=0;endFill=1;exitX=0;exitY=0.3333333333333333;exitDx=0;exitDy=0;exitPerimeter=0;" parent="1" source="fLlTL7555wPJ567KnK8Y-3" target="_qejKRSrahK1XEYpAzub-12" edge="1">
          <mxGeometry width="160" relative="1" as="geometry">
            <mxPoint x="660" y="20" as="sourcePoint" />
            <mxPoint x="565" y="218" as="targetPoint" />
          </mxGeometry>
        </mxCell>
      </root>
    </mxGraphModel>
  </diagram>
</mxfile>
